<?xml version="1.0" encoding="iso-8859-1"?>
<!-- Generator: Adobe Illustrator 19.0.0, SVG Export Plug-In . SVG Version: 6.00 Build 0)  -->
<svg version="1.1" xmlns="http://www.w3.org/2000/svg" x="0px" y="0px"
	 viewBox="0 0 511 511" style="enable-background:new 0 0 511 511;" xml:space="preserve">
<g>
	<path d="M263.5,224h-16c-17.369,0-31.5,14.131-31.5,31.5v48c0,17.369,14.131,31.5,31.5,31.5h16c17.369,0,31.5-14.131,31.5-31.5v-48
		C295,238.131,280.869,224,263.5,224z M280,303.5c0,9.098-7.402,16.5-16.5,16.5h-16c-9.098,0-16.5-7.402-16.5-16.5v-48
		c0-9.098,7.402-16.5,16.5-16.5h16c9.098,0,16.5,7.402,16.5,16.5V303.5z" fill="#F9AA33"/>
	<path d="M199.5,296H191v-64.5c0-4.142-3.358-7.5-7.5-7.5s-7.5,3.358-7.5,7.5V296h-38.094l20.709-62.128
		c1.31-3.929-0.814-8.177-4.744-9.487c-3.929-1.311-8.177,0.814-9.487,4.743l-24,72c-0.762,2.287-0.379,4.801,1.031,6.757
		S125.089,311,127.5,311H176v16.5c0,4.142,3.358,7.5,7.5,7.5s7.5-3.358,7.5-7.5V311h8.5c4.142,0,7.5-3.358,7.5-7.5
		S203.642,296,199.5,296z" fill="#F9AA33"/>
	<path d="M383.5,296H375v-64.5c0-4.142-3.358-7.5-7.5-7.5s-7.5,3.358-7.5,7.5V296h-38.094l20.709-62.128
		c1.31-3.929-0.814-8.177-4.744-9.487c-3.929-1.311-8.177,0.814-9.487,4.743l-24,72c-0.762,2.287-0.379,4.801,1.031,6.757
		S309.089,311,311.5,311H360v16.5c0,4.142,3.358,7.5,7.5,7.5s7.5-3.358,7.5-7.5V311h8.5c4.142,0,7.5-3.358,7.5-7.5
		S387.642,296,383.5,296z" fill="#F9AA33"/>
</g>
</svg>
