<?xml version="1.0" encoding="UTF-8"?>
<svg xmlns="http://www.w3.org/2000/svg" id="Camada_1" data-name="Camada 1" viewBox="0 0 98.55 78">
    <path d="M40.54,68A20.51,20.51,0,0,1,20.05,47.55h3A17.51,17.51,0,0,0,40.54,65Z" fill="#F9AA33"></path>
    <path d="M78.5,30.08h-3A17.51,17.51,0,0,0,58,12.59v-3A20.52,20.52,0,0,1,78.5,30.08Z" fill="#F9AA33"></path>
    <path d="M40.46,78.4A30.8,30.8,0,0,1,9.7,47.63h3A27.8,27.8,0,0,0,40.46,75.4Z" fill="#F9AA33"></path>
    <path d="M88.86,30h-3A27.8,27.8,0,0,0,58.09,2.24v-3A30.8,30.8,0,0,1,88.86,30Z" fill="#F9AA33"></path>
    <rect x="15.4" y="21.09" width="35.29" height="3" transform="translate(-6.29 29.98) rotate(-45)"
          fill="#F9AA33"></rect>
    <rect x="46.89" y="52.57" width="35.29" height="3" transform="translate(-19.33 61.47) rotate(-45)"
          fill="#F9AA33"></rect>
    <rect x="26.59" y="17.79" width="6.31" height="3" transform="translate(-4.93 26.68) rotate(-45)"
          fill="#F9AA33"></rect>
    <path d="M68.1,60.15a2.49,2.49,0,1,1,1.8-4.25h0a2.51,2.51,0,0,1-1.8,4.25Zm.38-2.83-.7.7a.5.5,0,1,0,.7-.7Zm-.38-.17a.52.52,0,0,0-.35.14.53.53,0,0,0,0,.73l.71-.71A.59.59,0,0,0,68.1,57.15Z"
          fill="#F9AA33"></path>
    <path d="M59.52,73.84a5.61,5.61,0,0,1-4-1.68L43.31,59.93l2.12-2.12L57.67,70a2.31,2.31,0,0,0,3.24.25L80.75,50.45a2.31,2.31,0,0,0-.25-3.24L68.27,35l2.12-2.12L82.62,45.09a5.3,5.3,0,0,1,.26,7.48L63,72.42A4.93,4.93,0,0,1,59.52,73.84Z"
          fill="#F9AA33"></path>
    <path d="M28.27,44.88,15.93,32.55a5.66,5.66,0,0,1-1.67-3.73,4.9,4.9,0,0,1,1.42-3.75L35.53,5.22A4.91,4.91,0,0,1,39.28,3.8,5.66,5.66,0,0,1,43,5.47L55.25,17.72l-2.12,2.12L40.89,7.59a2.7,2.7,0,0,0-1.75-.8,1.92,1.92,0,0,0-1.49.55L17.8,27.19a2,2,0,0,0-.55,1.49,2.7,2.7,0,0,0,.8,1.75L30.39,42.76Z"
          fill="#F9AA33"></path>
    <path d="M45.93,50.75l-5.88,5.92L38.87,55.5l-.2-5.75a9.79,9.79,0,0,0-.25-1.94,2.48,2.48,0,0,0-.62-1.16A1.84,1.84,0,0,0,36.61,46a1.47,1.47,0,0,0-1.15.5A1.58,1.58,0,0,0,35,47.86a2.18,2.18,0,0,0,.72,1.38L34,51a4,4,0,0,1-1.07-1.81,3.77,3.77,0,0,1,0-2.08,4.62,4.62,0,0,1,1.18-1.93,4.36,4.36,0,0,1,2.7-1.44,3.25,3.25,0,0,1,2.55,1.06,4.19,4.19,0,0,1,1,1.63,10.59,10.59,0,0,1,.42,2.68l.12,4,3.69-3.71Z"
          fill="#F9AA33"></path>
    <path d="M48.76,41.4l1-1,1.38,1.37-1,1L52,44.63l-1.7,1.71-1.87-1.85L44.92,48l-1.16-1-2.11-9.25,1.72-1.73ZM45.16,45l1.9-1.91-3.05-3,.08.31Z"
          fill="#F9AA33"></path>
    <path d="M59.78,36.81l-5.89,5.92-1.17-1.17-.2-5.75a9.79,9.79,0,0,0-.25-1.94,2.53,2.53,0,0,0-.62-1.16,1.88,1.88,0,0,0-1.19-.61,1.52,1.52,0,0,0-1.16.51,1.61,1.61,0,0,0-.51,1.31,2.28,2.28,0,0,0,.72,1.38L47.81,37a3.87,3.87,0,0,1-1.07-1.81,3.68,3.68,0,0,1,0-2.08A4.64,4.64,0,0,1,48,31.2a4.3,4.3,0,0,1,2.7-1.43,3.15,3.15,0,0,1,2.54,1.06,4,4,0,0,1,1,1.62,10.67,10.67,0,0,1,.42,2.68l.11,4,3.69-3.71Z"
          fill="#F9AA33"></path>
    <path d="M62.61,27.46l1-1L65,27.86l-1,1,1.87,1.86L64.15,32.4l-1.86-1.85-3.52,3.54-1.16-1L55.5,23.84l1.72-1.73ZM59,31.08l1.89-1.91-3-3,.08.3Z"
          fill="#F9AA33"></path>
</svg>
