<?xml version="1.0" encoding="UTF-8"?>
<svg xmlns="http://www.w3.org/2000/svg" id="Camada_1" data-name="Camada 1" viewBox="0 0 98.55 78">
    <rect x="42.18" y="3.73" width="3.94" height="3" fill="#F9AA33"></rect>
    <polygon
            points="59.04 47.88 9.84 47.88 9.84 0 80.12 0 80.12 14.23 77.12 14.23 77.12 3 12.84 3 12.84 44.88 59.04 44.88 59.04 47.88"
            fill="#F9AA33"></polygon>
    <path d="M59.3,68.1H2.9A2.91,2.91,0,0,1,.34,63.84L10,45.68l2.64,1.41-9.59,18H59.3Z" fill="#F9AA33"></path>
    <path d="M92.08,78h-23a6.47,6.47,0,0,1-6.47-6.47V23.83a6.47,6.47,0,0,1,6.47-6.47h23a6.47,6.47,0,0,1,6.47,6.47v47.7A6.47,6.47,0,0,1,92.08,78Zm-23-57.64a3.47,3.47,0,0,0-3.47,3.47v47.7A3.47,3.47,0,0,0,69.13,75h23a3.47,3.47,0,0,0,3.47-3.47V23.83a3.47,3.47,0,0,0-3.47-3.47Z"
          fill="#F9AA33"></path>
    <rect x="64.16" y="24.22" width="32.9" height="3" fill="#F9AA33"></rect>
    <rect x="64.16" y="67.52" width="32.9" height="3" fill="#F9AA33"></rect>
</svg>
